<?xml version="1.0" standalone="no"?>
<!DOCTYPE svg PUBLIC "-//W3C//DTD SVG 20010904//EN"
 "http://www.w3.org/TR/2001/REC-SVG-20010904/DTD/svg10.dtd">
<svg version="1.0" xmlns="http://www.w3.org/2000/svg"
 width="640.000000pt" height="640.000000pt" viewBox="0 0 640.000000 640.000000"
 preserveAspectRatio="xMidYMid meet">
<metadata>
Created by potrace 1.15, written by Peter Selinger 2001-2017
</metadata>
<g transform="translate(0.000000,640.000000) scale(0.100000,-0.100000)"
fill="#000000" stroke="none">
<path d="M0 6150 c1 -243 2 -250 21 -250 11 0 29 -5 40 -10 24 -13 25 -57 2
-63 -10 -2 -3 -4 14 -4 39 0 94 -50 71 -64 -10 -7 -9 -9 4 -9 9 0 20 -9 23
-20 3 -11 13 -20 21 -20 8 0 15 -4 15 -10 1 -5 2 -13 3 -18 0 -4 11 -18 24
-32 12 -13 22 -30 22 -37 0 -7 5 -13 10 -13 6 0 10 6 10 14 0 8 5 18 12 22 8
5 9 -1 5 -22 -8 -41 30 -78 69 -68 19 5 25 4 20 -5 -4 -6 -16 -11 -27 -11 -11
0 -18 -4 -14 -10 3 -5 12 -7 20 -3 10 3 15 -1 15 -15 0 -23 20 -42 20 -20 1
29 21 207 31 268 5 36 14 101 19 145 18 171 48 308 72 332 8 7 40 15 72 17 54
4 59 6 74 38 12 23 24 33 42 35 27 1 146 7 450 23 107 5 256 14 330 19 74 6
191 13 260 16 189 8 305 16 309 21 2 2 -460 4 -1028 4 l-1032 0 1 -250z"/>
<path d="M4077 6363 c-1 -1 -85 -4 -187 -8 -102 -3 -331 -13 -510 -22 -179 -8
-392 -16 -475 -18 -82 -2 -208 -7 -280 -10 -71 -4 -137 -7 -145 -7 -8 0 -107
-4 -220 -8 -113 -5 -268 -12 -345 -15 -77 -3 -183 -7 -235 -10 -52 -3 -162 -7
-245 -10 -82 -3 -170 -7 -195 -10 -25 -2 -106 -7 -180 -11 -202 -10 -244 -16
-248 -37 -3 -15 4 -17 80 -12 46 2 162 7 258 10 96 3 200 8 230 10 175 16 611
41 880 50 107 4 198 10 202 14 5 4 29 4 55 1 27 -3 66 -2 88 2 22 3 121 9 220
12 199 6 588 22 735 31 52 3 169 8 260 11 91 3 176 7 190 8 14 2 61 4 105 4
85 2 94 18 12 24 -27 2 -49 2 -50 1z"/>
<path d="M2157 6184 c-3 -4 -79 -6 -169 -6 -161 1 -275 -7 -312 -23 -14 -6
-17 -5 -12 3 7 11 -15 11 -289 -3 -232 -11 -312 -16 -330 -19 -11 -3 -30 -5
-42 -5 -16 -1 -23 -7 -23 -21 0 -16 7 -20 33 -20 21 0 28 -3 19 -9 -11 -7 -10
-10 3 -15 24 -9 26 -8 23 8 -3 16 4 19 29 9 9 -4 18 -2 21 5 2 6 10 8 18 5 8
-3 14 0 14 6 0 6 4 11 9 11 5 0 7 -9 4 -20 -5 -19 0 -19 141 -17 80 1 146 4
146 7 0 3 46 4 102 3 57 -1 110 1 118 4 8 4 49 7 90 8 53 0 74 4 73 13 -2 7 2
12 7 12 6 0 10 -4 10 -10 0 -13 127 -13 134 -1 4 5 0 12 -6 14 -7 3 -3 6 10 6
12 1 22 -3 22 -9 0 -17 136 -12 154 5 19 19 33 19 44 -1 5 -9 14 -14 21 -10
15 10 14 43 -1 49 -7 2 9 4 35 4 26 0 53 5 59 11 9 9 -7 12 -68 12 -45 0 -83
-3 -87 -6z"/>
<path d="M3160 5336 c-47 -6 -90 -14 -96 -18 -6 -4 -60 -10 -120 -14 -60 -4
-113 -10 -119 -14 -5 -4 -63 -29 -129 -54 -65 -25 -130 -56 -144 -69 -13 -12
-41 -37 -61 -56 -39 -36 -99 -78 -145 -101 -16 -8 -35 -25 -44 -37 -8 -13 -19
-23 -26 -23 -22 -1 -54 -37 -78 -87 -13 -29 -42 -73 -64 -98 -21 -26 -51 -62
-66 -80 -16 -18 -28 -37 -28 -42 0 -6 -9 -22 -21 -37 -18 -22 -18 -26 -4 -26
13 0 16 -8 14 -37 -1 -21 3 -48 9 -60 20 -36 11 -153 -16 -223 -5 -14 -15 -74
-23 -133 -7 -60 -18 -115 -24 -123 -12 -18 -173 -22 -832 -23 -298 -1 -423 -4
-423 -12 0 -8 179 -10 625 -8 343 2 626 1 629 -2 2 -2 6 -42 7 -87 3 -72 6
-85 24 -94 11 -6 38 -26 59 -45 22 -18 45 -33 52 -33 6 0 19 -10 27 -22 9 -13
27 -36 41 -52 14 -15 31 -40 37 -55 l12 -27 23 21 c17 16 23 32 22 61 0 21 10
93 22 159 12 66 22 135 21 154 -3 52 20 133 44 161 12 14 33 46 45 73 13 26
27 47 30 47 10 0 34 52 37 80 2 14 6 45 9 69 4 27 2 46 -5 50 -5 4 -10 20 -10
36 0 17 0 49 0 73 0 24 3 40 9 37 5 -3 11 -1 15 5 3 5 28 10 54 10 37 0 56 7
89 31 23 17 52 32 64 33 13 2 30 6 38 8 186 62 229 69 395 63 77 -3 145 -6
150 -7 36 -3 170 14 175 22 9 14 133 10 142 -4 5 -8 8 -7 8 2 0 6 12 12 26 12
30 0 115 -20 129 -30 6 -4 33 -11 60 -15 28 -4 68 -16 89 -26 22 -10 47 -19
56 -19 9 0 27 -10 40 -22 14 -13 29 -23 35 -23 6 0 34 -24 64 -53 30 -29 58
-49 62 -45 15 15 13 68 -4 102 -16 33 -16 35 3 48 11 8 20 20 20 28 0 7 9 17
20 20 23 7 26 21 6 28 -26 10 -38 44 -21 60 13 13 13 16 -2 21 -14 6 -13 9 6
30 l22 24 -21 43 c-22 46 -32 99 -18 99 4 0 8 7 8 15 0 9 -6 15 -12 14 -27 -3
-38 3 -86 50 -54 53 -226 168 -271 181 -14 4 -62 21 -106 38 -53 21 -99 31
-135 32 -30 0 -118 2 -195 3 -77 2 -178 -2 -225 -7z"/>
<path d="M366 5283 c-18 -102 -35 -226 -41 -298 -3 -44 -12 -114 -20 -155 -8
-41 -17 -115 -20 -165 -4 -49 -11 -112 -17 -140 -5 -27 -11 -66 -13 -85 -2
-19 -4 -35 -4 -35 -1 0 -4 -27 -6 -60 -3 -33 -7 -76 -11 -95 -3 -19 -7 -48 -8
-65 -2 -16 -6 -45 -10 -64 -5 -18 -10 -50 -11 -70 -2 -20 -6 -56 -10 -81 -3
-25 -17 -137 -30 -250 -14 -113 -30 -241 -36 -285 -6 -44 -12 -98 -14 -120 -5
-49 -24 -196 -34 -250 -7 -38 -8 -40 -44 -39 -52 2 -51 -28 2 -46 34 -11 38
-16 35 -39 -2 -14 -8 -62 -13 -106 -6 -44 -21 -165 -35 -270 -25 -186 -26
-203 -26 -788 0 -667 -7 -612 70 -532 38 38 40 39 101 37 34 -2 66 -5 72 -9
11 -7 2 -163 -13 -228 -5 -21 -9 -96 -10 -165 -2 -170 -7 -182 -78 -211 -31
-13 -68 -29 -82 -36 -14 -7 -33 -13 -42 -13 -17 0 -18 -21 -18 -310 l0 -310
1533 1 c1077 0 1526 3 1510 11 -48 23 -31 98 23 98 61 0 98 -45 74 -89 -10
-21 -9 -21 71 -21 l82 0 -7 59 c-4 37 -3 62 4 66 10 6 20 -12 41 -82 l12 -43
877 0 c792 0 879 2 891 16 12 14 14 14 20 -3 4 -10 7 13 6 50 0 37 -4 70 -9
73 -13 9 -9 24 7 24 19 0 20 24 1 39 -11 9 -15 9 -20 -1 -3 -7 -3 -2 0 12 4
14 11 26 15 28 12 5 11 39 -1 47 -13 8 -13 61 -1 84 11 20 3 63 -10 55 -5 -3
-9 10 -9 29 0 25 6 37 24 46 13 8 29 10 35 7 7 -5 11 4 11 25 0 31 0 31 -25
15 -27 -18 -49 -22 -25 -5 11 8 12 12 3 16 -7 2 -13 14 -13 26 1 21 1 21 15 3
8 -11 20 -16 30 -12 19 7 11 26 -11 26 -8 0 -14 7 -14 15 0 8 -6 15 -13 15 -7
0 -14 11 -15 26 -1 14 2 23 8 19 6 -3 10 -2 10 4 0 5 3 17 7 27 5 13 3 16 -10
11 -11 -4 -14 -2 -10 9 3 7 9 14 14 14 24 0 5 32 -28 45 -35 15 -35 16 -17 30
17 14 18 16 3 28 -26 20 -33 54 -12 66 17 9 17 10 1 16 -10 4 -20 22 -24 41
-3 19 -10 34 -15 34 -5 0 -9 9 -9 20 0 11 4 20 10 20 15 0 -1 32 -29 57 -21
18 -23 22 -8 23 27 0 24 60 -3 60 -24 0 -26 13 -5 34 8 8 15 19 15 25 0 17
-27 13 -34 -6 -5 -12 -10 -13 -18 -5 -8 8 -7 18 5 36 12 17 13 27 6 32 -7 4
-9 25 -6 53 3 25 3 37 0 27 -4 -15 -7 -16 -13 -5 -5 7 -4 21 1 30 6 12 5 20
-1 24 -6 4 -8 11 -4 16 3 5 9 7 13 4 5 -2 6 7 3 20 -5 29 -10 30 -48 10 -27
-14 -29 -14 -32 5 -2 11 -8 20 -13 20 -5 0 -9 23 -9 50 0 28 5 50 10 50 6 0
10 5 10 10 0 7 -6 7 -19 0 -29 -15 -44 -12 -37 6 5 13 2 15 -14 11 -14 -4 -20
0 -20 11 0 10 -5 24 -10 32 -7 12 -12 12 -22 2 -18 -18 -38 -14 -38 8 0 15 7
20 26 20 22 0 25 2 14 15 -7 8 -21 15 -32 15 -10 0 -21 7 -24 15 -4 8 -14 15
-24 15 -13 0 -20 11 -25 40 -4 23 -11 37 -17 34 -6 -4 -8 10 -5 37 2 24 2 34
0 22 -3 -18 -11 -23 -34 -23 -25 0 -29 4 -29 27 0 14 -3 24 -6 20 -4 -3 -3
-22 0 -41 5 -24 13 -36 26 -38 15 -2 17 -7 10 -18 -14 -23 -50 21 -50 60 0 49
-63 94 -73 53 -2 -10 -8 1 -12 25 -5 30 -12 42 -25 42 -16 0 -34 46 -47 128
-6 37 -21 51 -34 31 -6 -10 -11 -5 -19 16 -18 45 -28 148 -34 360 -7 210 -15
337 -20 342 -2 2 -1 -119 1 -269 5 -240 -4 -533 -15 -470 -6 36 -22 25 -22
-15 0 -43 -13 -72 -24 -54 -4 6 -2 11 3 11 6 0 11 7 11 15 0 11 -11 15 -40 15
-36 0 -40 3 -40 25 0 27 -17 34 -26 10 -9 -24 -21 -18 -34 18 -11 29 -13 30
-21 12 -6 -14 -8 3 -6 51 3 45 10 80 21 95 19 27 21 90 4 107 -9 9 -9 12 -1
12 18 0 25 37 12 58 -7 11 -9 27 -5 38 14 34 3 207 -13 212 -6 2 -11 12 -11
23 0 10 -6 19 -13 19 -6 0 -18 19 -25 43 -8 23 -19 56 -26 72 -8 17 -26 59
-42 95 -15 36 -30 89 -32 118 -2 28 -8 52 -13 52 -4 0 -24 16 -45 35 -24 23
-47 35 -65 35 -31 0 -79 -19 -79 -31 0 -11 -109 -8 -116 3 -8 13 -67 9 -88 -7
-10 -8 -15 -19 -10 -26 5 -8 3 -10 -5 -4 -7 4 -22 -1 -34 -13 -12 -12 -44 -31
-70 -42 -47 -21 -49 -21 -62 -3 -8 10 -15 26 -15 36 0 39 -60 -2 -60 -42 0
-55 83 -181 120 -181 9 0 20 -3 24 -7 8 -8 13 -9 42 -12 13 -1 14 -4 4 -16 -7
-8 -18 -15 -25 -15 -7 0 -15 -7 -19 -15 -3 -8 -12 -15 -21 -15 -27 0 -75 -42
-75 -66 0 -35 21 -45 73 -35 45 8 57 6 57 -10 0 -16 -206 -43 -216 -28 -3 5 0
9 6 9 7 0 10 15 8 38 l-3 37 -55 0 c-30 1 -61 4 -68 9 -7 4 -12 2 -12 -8 0
-13 -8 -14 -44 -10 -25 4 -46 2 -50 -4 -3 -6 -15 -8 -26 -5 -16 4 -21 -1 -26
-26 -4 -17 -10 -31 -15 -31 -5 0 -9 -7 -9 -15 0 -19 19 -20 26 -1 3 8 13 17
21 20 14 6 14 4 0 -18 -9 -13 -22 -46 -28 -73 -7 -26 -18 -52 -26 -56 -7 -4
-13 -16 -13 -25 0 -45 -65 -59 -76 -17 -7 28 -31 34 -36 8 -5 -28 -93 -18
-136 15 -28 21 -35 23 -43 11 -8 -11 -9 -10 -8 6 2 24 -9 54 -28 77 -8 9 -12
22 -8 28 4 7 -2 14 -14 17 -12 3 -21 9 -21 14 0 5 -10 9 -22 9 -13 0 -32 7
-42 15 -27 21 -39 19 -33 -5 4 -17 0 -20 -26 -19 -24 1 -26 3 -9 6 27 5 28 15
4 36 -24 21 -32 21 -32 0 0 -12 -3 -14 -11 -6 -5 5 -11 33 -11 61 -1 32 -6 53
-15 56 -7 3 -13 16 -13 28 0 13 -9 34 -19 47 -21 27 -18 105 4 131 15 18 18
30 16 88 -1 35 -4 42 -21 42 -18 0 -19 -5 -13 -60 4 -44 3 -60 -7 -60 -6 0
-14 9 -17 20 -3 11 -9 20 -13 20 -4 0 -12 26 -19 58 -7 31 -17 65 -22 74 -5
10 -6 24 -3 33 3 8 3 15 -1 15 -10 0 -30 -23 -38 -42 -9 -26 -28 -22 -53 10
-25 31 -31 28 -40 -16 -6 -29 -4 -33 29 -47 42 -17 53 -31 38 -49 -6 -7 -12
-47 -14 -87 l-2 -74 -55 0 c-58 1 -139 33 -172 69 -18 19 -25 12 -10 -10 10
-16 156 -97 195 -108 14 -5 17 -18 17 -92 0 -78 2 -86 20 -91 23 -6 35 -41 27
-81 -8 -37 8 -104 27 -118 9 -6 16 -20 16 -30 0 -10 12 -41 25 -69 14 -27 25
-62 25 -77 0 -17 8 -31 20 -38 11 -6 20 -19 20 -29 0 -10 11 -33 25 -52 13
-19 30 -47 38 -64 8 -16 21 -36 30 -44 10 -7 17 -22 17 -33 0 -10 7 -21 15
-24 8 -4 15 -11 15 -17 0 -6 17 -28 37 -49 20 -21 32 -38 25 -38 -18 0 -14
-18 5 -22 12 -2 18 -14 19 -42 1 -29 8 -45 32 -68 18 -16 32 -33 32 -38 0 -5
14 -26 32 -46 27 -30 30 -39 20 -55 -16 -25 -15 -27 6 -25 11 1 17 -6 17 -20
0 -11 6 -28 14 -37 11 -14 11 -20 1 -32 -10 -13 -9 -15 9 -15 23 0 29 -15 9
-23 -10 -4 -10 -8 1 -15 12 -8 9 -15 -15 -35 -20 -18 -31 -22 -36 -14 -6 9
-12 9 -28 -1 -11 -6 -27 -12 -35 -12 -8 0 -15 -9 -15 -20 0 -24 -17 -26 -42
-3 -14 13 -21 14 -30 5 -18 -18 -38 -15 -31 4 5 13 2 15 -18 9 -38 -12 -53
-11 -54 4 0 8 -6 16 -13 19 -7 2 -10 -2 -6 -12 9 -24 -3 -19 -44 18 -20 19
-66 57 -102 85 -91 71 -120 101 -120 123 0 11 -8 33 -17 51 -9 18 -16 38 -15
44 2 7 -2 13 -8 13 -5 0 -10 -4 -10 -10 0 -5 -10 -10 -21 -10 -19 0 -20 -2 -8
-17 11 -15 10 -14 -9 1 -12 11 -22 31 -22 45 0 19 -3 22 -12 13 -19 -19 -35
-14 -70 22 -36 37 -106 76 -137 76 -13 0 -26 -15 -42 -47 -13 -27 -34 -64 -46
-83 -13 -19 -29 -43 -36 -54 -6 -10 -24 -36 -39 -57 -15 -21 -30 -51 -34 -66
-4 -15 -15 -39 -26 -52 -10 -13 -18 -31 -18 -40 -1 -22 -91 -90 -152 -113 -46
-17 -68 -31 -158 -96 -63 -47 -117 -80 -138 -87 -13 -4 -43 -19 -65 -35 -47
-31 -239 -130 -253 -130 -24 0 -205 -109 -234 -140 -27 -30 -107 -87 -151
-109 -24 -12 -69 -44 -99 -73 -33 -31 -56 -46 -58 -38 -7 19 19 193 30 208 6
6 8 35 6 64 -11 115 17 238 55 238 6 0 18 7 28 16 10 9 23 13 28 9 17 -10 14
-95 -3 -101 -16 -6 -38 -59 -29 -68 12 -11 23 -6 23 11 0 18 73 91 115 113 15
8 34 25 43 37 8 13 21 23 28 23 17 0 18 16 2 24 -10 5 -10 7 -1 12 18 8 16 24
-1 24 -8 0 -18 9 -21 21 -8 25 -45 41 -111 46 -37 3 -54 0 -63 -11 -35 -42
-74 0 -70 75 2 27 0 52 -4 55 -4 4 -7 -7 -7 -24 0 -61 -23 -89 -70 -83 -8 1
-46 4 -85 7 -99 7 -108 19 -100 144 4 52 13 149 21 215 8 66 19 163 24 215 6
52 14 129 20 170 5 41 16 145 25 230 9 85 20 178 25 205 6 28 12 115 15 194 3
79 8 147 10 151 3 4 7 34 10 66 6 69 32 281 45 374 6 36 19 144 30 240 11 96
23 193 26 215 12 87 55 433 60 485 3 30 7 62 9 70 4 13 17 115 56 425 6 50 20
148 31 219 10 72 22 158 24 193 l6 63 -29 0 c-15 0 -37 3 -49 6 -18 5 -22 0
-28 -33z m2800 -2723 c6 -6 37 -15 69 -20 83 -14 93 -26 69 -87 -15 -38 -19
-43 -22 -25 -4 27 -11 28 -28 5 -10 -14 -25 -17 -73 -15 -61 3 -87 -13 -33
-20 21 -3 17 -6 -21 -12 -56 -10 -71 -1 -88 52 -7 20 -16 40 -22 43 -13 9 0
29 19 29 8 0 14 6 14 14 0 33 91 61 116 36z"/>
<path d="M3515 4405 c-5 -2 -30 -9 -55 -15 -59 -16 -38 -26 70 -34 110 -9 230
-37 230 -54 0 -15 42 -6 48 9 2 5 11 9 20 9 12 0 10 5 -8 25 -13 14 -34 25
-47 25 -13 0 -36 6 -51 14 -15 7 -52 14 -82 14 -30 0 -68 3 -85 6 -16 3 -34 3
-40 1z"/>
<path d="M3760 4208 c0 -10 -4 -18 -8 -18 -5 0 -17 -8 -28 -17 -11 -10 -35
-29 -54 -42 l-33 -24 -24 28 c-24 27 -24 27 -30 5 -5 -18 -11 -21 -34 -16 -21
4 -29 1 -32 -12 -4 -15 -5 -15 -6 1 -1 14 -6 17 -22 12 -14 -5 -25 -1 -34 12
-10 12 -14 14 -15 4 0 -10 -9 -12 -35 -8 -19 3 -47 2 -62 -3 -15 -5 -45 -14
-67 -20 -30 -10 -40 -10 -46 0 -9 15 -113 17 -143 2 -27 -13 -108 -32 -137
-32 -11 0 -39 -9 -63 -19 -23 -11 -62 -22 -87 -26 -80 -11 -100 -16 -94 -26 3
-5 0 -9 -5 -9 -6 0 -34 -11 -63 -25 -28 -14 -57 -25 -64 -25 -6 0 -15 -7 -18
-16 -3 -8 -2 -12 4 -9 16 10 12 -11 -5 -25 -17 -14 -21 -60 -5 -60 6 0 7 -18
3 -45 -8 -64 9 -92 67 -109 45 -14 150 -62 160 -75 3 -3 26 -23 52 -43 34 -28
56 -38 82 -38 30 0 80 -17 148 -51 25 -12 42 -11 75 5 15 8 54 25 86 40 44 20
57 31 57 47 0 12 8 28 18 35 20 16 59 18 64 4 4 -14 70 8 81 27 5 8 26 21 48
29 21 9 39 20 39 24 0 5 11 22 25 39 28 33 89 48 142 37 26 -6 30 -13 40 -64
30 -152 80 -292 106 -292 6 0 23 -12 36 -25 13 -14 31 -25 41 -25 10 0 31 -3
47 -6 25 -5 31 -2 36 16 4 17 12 21 39 18 21 -2 37 3 45 12 10 13 14 13 31 -3
29 -27 47 -13 49 38 1 32 9 54 27 76 14 17 26 36 26 43 0 7 10 24 23 37 13 13
29 40 37 59 8 19 24 48 37 63 15 19 23 42 23 68 0 36 -7 47 -60 100 -34 33
-69 59 -80 59 -11 0 -23 7 -27 16 -5 13 -8 13 -15 2 -7 -9 -8 -4 -4 15 7 29
-3 34 -34 17 -15 -8 -26 -4 -53 20 -23 20 -45 30 -67 30 -23 0 -33 5 -37 20
-3 11 -14 20 -24 20 -11 0 -19 5 -19 10 0 7 -6 7 -20 0 -11 -6 -32 -9 -47 -7
-21 3 -30 11 -37 35 -9 31 -29 42 -41 22 -4 -6 -13 -5 -26 3 -18 11 -17 12 14
17 l34 5 -19 30 c-12 21 -18 25 -18 13z"/>
<path d="M1895 3705 c-21 -22 -35 -48 -38 -72 -3 -21 -10 -60 -17 -88 -6 -27
-8 -65 -5 -83 14 -75 45 -104 45 -43 0 16 7 34 15 41 8 6 17 22 21 33 15 48
54 124 72 140 18 16 19 16 32 -10 14 -28 48 -62 63 -63 4 0 4 8 -1 18 -5 9
-12 33 -16 52 -4 21 -21 51 -42 73 -48 49 -84 50 -129 2z"/>
<path d="M2123 3553 c-13 -8 -23 -21 -23 -28 0 -14 -31 -25 -71 -25 -35 0 -65
-28 -89 -82 -18 -41 -18 -50 -6 -97 13 -52 48 -101 73 -101 15 0 17 16 3 25
-5 3 -10 21 -10 39 0 45 53 96 101 96 29 0 37 5 54 36 25 46 28 147 5 151 -8
1 -25 -5 -37 -14z"/>
<path d="M417 2673 c-8 -13 -27 -131 -27 -170 0 -29 3 -32 33 -35 l32 -3 -3
-55 c-2 -30 -7 -71 -11 -90 -6 -32 -9 -35 -39 -32 l-32 4 0 -54 1 -53 13 31
c12 27 18 30 45 26 26 -4 31 -1 31 16 0 11 9 102 21 203 19 165 19 183 5 197
-12 12 -19 13 -28 4 -9 -9 -14 -7 -23 5 -7 9 -15 12 -18 6z"/>
</g>
</svg>
